<svg data-v-fde0c5aa="" xmlns="http://www.w3.org/2000/svg" viewBox="0 0 300 300" class="font"><!----><defs data-v-fde0c5aa=""><!----></defs><rect data-v-fde0c5aa="" fill="transparent" x="0" y="0" width="300px" height="300px" class="logo-background-square"></rect><defs data-v-fde0c5aa=""><linearGradient data-v-fde0c5aa="" gradientTransform="rotate(25)" id="4f9976d7-54d3-4b9e-a8f8-b80387fb2280" x1="0%" y1="0%" x2="100%" y2="0%"><stop data-v-fde0c5aa="" offset="0%" stop-color="#70243D" stop-opacity="1"></stop><stop data-v-fde0c5aa="" offset="100%" stop-color="#C15767" stop-opacity="1"></stop></linearGradient></defs><g data-v-fde0c5aa="" id="8d7b1bec-bf03-4155-a7ae-0b08170140f1" fill="url(#4f9976d7-54d3-4b9e-a8f8-b80387fb2280)" transform="matrix(3.058529112562366,0,0,3.058529112562366,39.7859029384213,118.98651593618547)"><path d="M1.20 3.65L1.20 3.65L4.16 3.70L4.16 3.70Q6.45 3.70 7.52 3.53L7.52 3.53L7.52 3.53Q7.67 3.82 7.67 4.20L7.67 4.20L7.67 4.20Q7.67 4.58 7.34 4.88L7.34 4.88L7.34 4.88Q7 5.18 6.52 5.18L6.52 5.18L4.91 5.00L4.91 5.00Q4.91 5.10 4.84 5.87L4.84 5.87L4.84 5.87Q4.65 7.76 4.65 9.66L4.65 9.66L4.65 9.66Q4.65 11.56 4.94 13.47L4.94 13.47L4.94 13.47Q4.48 13.64 3.98 13.64L3.98 13.64L3.98 13.64Q3.47 13.64 3.11 13.35L3.11 13.35L3.11 13.35Q2.74 13.06 2.74 12.48L2.74 12.48L2.74 12.48Q2.74 11.90 2.88 10.43L2.88 10.43L2.88 10.43Q3.02 8.96 3.02 7.57L3.02 7.57L3.02 7.57Q3.02 6.17 2.88 4.97L2.88 4.97L2.88 4.97Q1.19 5.05 0.24 5.45L0.24 5.45L0.24 5.45Q0.07 5.12 0.07 4.73L0.07 4.73L0.07 4.73Q0.07 4.33 0.39 3.99L0.39 3.99L0.39 3.99Q0.71 3.65 1.20 3.65ZM13.52 7.04L13.52 7.04L13.52 7.04Q13.15 8.65 13.15 10.27L13.15 10.27L13.15 10.27Q13.15 11.89 13.51 13.47L13.51 13.47L13.51 13.47Q13.01 13.64 12.47 13.64L12.47 13.64L12.47 13.64Q11.94 13.64 11.73 13.32L11.73 13.32L11.73 13.32Q11.52 13.01 11.52 12.41L11.52 12.41L11.52 12.41Q11.52 11.82 11.70 10.78L11.70 10.78L11.70 10.78Q10.71 12.91 9.79 13.47L9.79 13.47L9.79 13.47Q9.37 13.72 8.92 13.72L8.92 13.72L8.92 13.72Q7.85 13.72 7.27 12.93L7.27 12.93L7.27 12.93Q6.68 12.14 6.68 10.96L6.68 10.96L6.68 10.96Q6.68 9.17 7.67 7.82L7.67 7.82L7.67 7.82Q8.67 6.47 10.25 6.47L10.25 6.47L10.25 6.47Q11.84 6.47 13.52 7.04ZM11.69 7.88L11.69 7.88L11.69 7.88Q10.95 7.66 10.43 7.66L10.43 7.66L10.43 7.66Q9.38 7.66 8.86 8.12L8.86 8.12L8.86 8.12Q8.39 9.30 8.39 10.51L8.39 10.51L8.39 10.51Q8.39 11.16 8.59 11.82L8.59 11.82L8.59 11.82Q8.79 12.47 9.21 12.47L9.21 12.47L9.21 12.47Q9.70 12.47 10.47 11.03L10.47 11.03L10.47 11.03Q11.24 9.59 11.69 7.88ZM16.49 9.23L16.49 9.23L16.49 9.23Q16.98 8.19 17.95 7.33L17.95 7.33L17.95 7.33Q18.93 6.47 19.92 6.47L19.92 6.47L19.92 6.47Q21.32 6.47 21.32 7.95L21.32 7.95L21.32 7.95Q21.32 8.71 20.63 9.57L20.63 9.57L20.63 9.57Q19.94 10.43 19.08 10.93L19.08 10.93L19.08 10.93Q19.47 11.62 20.05 11.98L20.05 11.98L20.05 11.98Q20.64 12.33 21.59 12.54L21.59 12.54L21.59 12.54Q21.59 13.09 21.33 13.41L21.33 13.41L21.33 13.41Q21.07 13.72 20.59 13.72L20.59 13.72L20.59 13.72Q19.64 13.72 18.73 12.80L18.73 12.80L18.73 12.80Q17.82 11.89 17.36 10.75L17.36 10.75L17.36 10.75Q18.26 10.30 18.91 9.69L18.91 9.69L18.91 9.69Q19.56 9.07 19.56 8.46L19.56 8.46L19.56 8.46Q19.56 7.84 19.18 7.84L19.18 7.84L19.18 7.84Q18.45 7.84 17.56 9.17L17.56 9.17L17.56 9.17Q16.67 10.50 16.53 11.38L16.53 11.38L16.53 11.38Q16.56 11.79 16.81 13.47L16.81 13.47L16.81 13.47Q16.38 13.64 15.86 13.64L15.86 13.64L15.86 13.64Q14.78 13.64 14.78 12.59L14.78 12.59L14.78 12.59Q14.78 12.08 14.94 10.61L14.94 10.61L14.94 10.61Q15.09 9.13 15.09 8.23L15.09 8.23L15.09 8.23Q15.09 5.25 14.76 3.30L14.76 3.30L14.76 3.30Q15.20 3.14 15.68 3.14L15.68 3.14L15.68 3.14Q16.16 3.14 16.47 3.45L16.47 3.45L16.47 3.45Q16.79 3.77 16.79 4.31L16.79 4.31L16.79 4.31Q16.79 4.86 16.64 6.57L16.64 6.57L16.64 6.57Q16.49 8.27 16.49 9.23ZM25.00 13.80L25.00 13.80L25.00 13.80Q23.46 13.80 22.74 12.90L22.74 12.90L22.74 12.90Q22.01 12.00 22.01 10.38L22.01 10.38L22.01 10.38Q22.01 8.76 22.97 7.57L22.97 7.57L22.97 7.57Q23.94 6.38 25.45 6.38L25.45 6.38L25.45 6.38Q28.56 6.38 28.56 9.88L28.56 9.88L28.56 9.88Q28.56 11.52 27.55 12.66L27.55 12.66L27.55 12.66Q26.54 13.80 25.00 13.80ZM24.00 7.92L24.00 7.92L24.00 7.92Q23.74 8.74 23.74 9.55L23.74 9.55L23.74 9.55Q23.74 10.36 23.80 10.81L23.80 10.81L23.80 10.81Q23.86 11.26 24.01 11.70L24.01 11.70L24.01 11.70Q24.33 12.61 25.28 12.61L25.28 12.61L25.28 12.61Q26.22 12.61 26.52 12.11L26.52 12.11L26.52 12.11Q26.82 11.61 26.82 10.56L26.82 10.56L26.82 10.56Q26.82 7.57 25.41 7.57L25.41 7.57L25.41 7.57Q24.60 7.57 24.00 7.92ZM36.02 3.81L36.02 3.81L36.02 3.81Q36.61 3.61 37.09 3.61L37.09 3.61L37.09 3.61Q37.81 3.61 38.22 4.12L38.22 4.12L38.22 4.12Q38.63 4.63 38.85 5.57L38.85 5.57L38.85 5.57Q38.92 5.85 39.14 6.80L39.14 6.80L39.14 6.80Q39.35 7.76 39.49 8.34L39.49 8.34L39.49 8.34Q39.93 10.18 40.28 11.19L40.28 11.19L40.28 11.19Q40.64 12.19 41.43 12.80L41.43 12.80L41.43 12.80Q41.26 13.22 40.87 13.47L40.87 13.47L40.87 13.47Q40.49 13.72 40.04 13.72L40.04 13.72L40.04 13.72Q39.02 13.72 38.54 12.18L38.54 12.18L38.54 12.18Q38.32 11.47 38.14 10.78L38.14 10.78L38.14 10.78Q37.65 10.95 36.92 10.95L36.92 10.95L36.92 10.95Q36.20 10.95 35.15 10.79L35.15 10.79L35.15 10.79Q34.72 12.49 34.72 13.34L34.72 13.34L34.72 13.34Q34.72 13.52 34.73 13.61L34.73 13.61L34.73 13.61Q34.55 13.64 34.12 13.64L34.12 13.64L34.12 13.64Q33.68 13.64 33.35 13.36L33.35 13.36L33.35 13.36Q33.03 13.09 33.03 12.59L33.03 12.59L33.03 12.59Q33.03 11.89 34.37 8.48L34.37 8.48L34.37 8.48Q35.71 5.08 36.02 3.81ZM35.48 9.62L35.48 9.62L35.48 9.62Q36.04 9.69 36.62 9.69L36.62 9.69L36.62 9.69Q37.20 9.69 37.86 9.56L37.86 9.56L37.86 9.56Q37.73 8.99 37.00 5.17L37.00 5.17L37.00 5.17Q36.13 7.42 35.48 9.62ZM52.92 7.98L52.92 7.98L52.78 10.98L52.78 10.98Q52.78 12.33 53.17 13.55L53.17 13.55L53.17 13.55Q52.78 13.72 52.28 13.72L52.28 13.72L52.28 13.72Q51.09 13.72 51.09 12.39L51.09 12.39L51.09 12.39Q51.09 11.79 51.24 10.37L51.24 10.37L51.24 10.37Q51.39 8.95 51.39 8.58L51.39 8.58L51.39 8.58Q51.39 7.88 50.82 7.88L50.82 7.88L50.82 7.88Q50.19 7.88 49.31 9.17L49.31 9.17L49.31 9.17Q48.44 10.46 48.44 11.19L48.44 11.19L48.44 11.19Q48.51 12.29 48.83 13.38L48.83 13.38L48.83 13.38Q48.30 13.55 47.94 13.55L47.94 13.55L47.94 13.55Q46.75 13.55 46.75 12.22L46.75 12.22L46.75 12.22Q46.75 11.66 46.90 10.35L46.90 10.35L46.90 10.35Q47.05 9.03 47.05 8.69L47.05 8.69L47.05 8.69Q47.05 7.99 46.42 7.99L46.42 7.99L46.42 7.99Q45.99 7.99 45.43 8.64L45.43 8.64L45.43 8.64Q44.87 9.28 44.48 10.06L44.48 10.06L44.48 10.06Q44.10 10.84 44.07 11.30L44.07 11.30L44.07 11.30Q44.14 12.50 44.35 13.47L44.35 13.47L44.35 13.47Q43.90 13.64 43.42 13.64L43.42 13.64L43.42 13.64Q42.94 13.64 42.64 13.41L42.64 13.41L42.64 13.41Q42.34 13.17 42.34 12.76L42.34 12.76L42.34 12.76Q42.34 12.35 42.46 11.28L42.46 11.28L42.46 11.28Q42.59 10.21 42.59 9.15L42.59 9.15L42.59 9.15Q42.59 8.09 42.27 6.72L42.27 6.72L42.27 6.72Q42.71 6.55 43.22 6.55L43.22 6.55L43.22 6.55Q43.72 6.55 44.04 6.85L44.04 6.85L44.04 6.85Q44.35 7.14 44.35 7.63L44.35 7.63L44.35 7.63Q44.35 7.88 44.25 8.86L44.25 8.86L44.25 8.86Q44.77 7.94 45.57 7.26L45.57 7.26L45.57 7.26Q46.37 6.58 47.17 6.58L47.17 6.58L47.17 6.58Q48.58 6.58 48.58 8.09L48.58 8.09L48.58 8.09Q48.58 8.47 48.54 8.93L48.54 8.93L48.54 8.93Q49.06 7.95 49.87 7.21L49.87 7.21L49.87 7.21Q50.69 6.47 51.51 6.47L51.51 6.47L51.51 6.47Q52.92 6.47 52.92 7.98ZM54.66 6.68L54.66 6.68L54.66 6.68Q55.10 6.55 55.56 6.55L55.56 6.55L55.56 6.55Q56.01 6.55 56.34 6.83L56.34 6.83L56.34 6.83Q56.66 7.11 56.66 7.55L56.66 7.55L56.66 7.55Q56.66 7.99 56.51 9.08L56.51 9.08L56.51 9.08Q56.36 10.16 56.36 10.77L56.36 10.77L56.36 10.77Q56.36 12.33 56.66 13.47L56.66 13.47L56.66 13.47Q56.22 13.64 55.72 13.64L55.72 13.64L55.72 13.64Q55.22 13.64 54.92 13.41L54.92 13.41L54.92 13.41Q54.63 13.17 54.63 12.73L54.63 12.73L54.63 12.73Q54.63 12.29 54.80 11.28L54.80 11.28L54.80 11.28Q54.96 10.28 54.96 9.62L54.96 9.62L54.96 9.62Q54.96 7.87 54.66 6.68ZM54.84 3.51L54.84 3.51L54.84 3.51Q55.33 3.29 55.80 3.29L55.80 3.29L55.80 3.29Q56.28 3.29 56.51 3.54L56.51 3.54L56.51 3.54Q56.74 3.78 56.74 4.26L56.74 4.26L56.74 4.26Q56.74 4.73 56.43 5.10L56.43 5.10L56.43 5.10Q56.11 5.46 55.61 5.46L55.61 5.46L55.61 5.46Q54.57 5.46 54.57 4.38L54.57 4.38L54.57 4.38Q54.57 3.91 54.84 3.51ZM62.93 7.88L62.93 7.88L62.93 7.88Q62.19 7.66 61.46 7.66L61.46 7.66L61.46 7.66Q60.73 7.66 60.09 8.09L60.09 8.09L60.09 8.09Q59.58 9.10 59.58 10.23L59.58 10.23L59.58 10.23Q59.58 10.89 59.77 11.52L59.77 11.52L59.77 11.52Q59.95 12.14 60.37 12.14L60.37 12.14L60.37 12.14Q60.84 12.14 61.64 10.78L61.64 10.78L61.64 10.78Q62.44 9.42 62.93 7.88ZM60.83 15.93L60.83 15.93L60.83 15.93Q61.73 15.93 62.23 15.32L62.23 15.32L62.23 15.32Q62.73 14.70 62.73 13.73L62.73 13.73L62.73 13.73Q62.73 13.26 62.67 12.35L62.67 12.35L62.67 12.35Q62.61 11.44 62.59 11.06L62.59 11.06L62.59 11.06Q61.60 12.80 60.86 13.19L60.86 13.19L60.86 13.19Q60.48 13.38 60.06 13.38L60.06 13.38L60.06 13.38Q59.01 13.38 58.44 12.56L58.44 12.56L58.44 12.56Q57.86 11.73 57.86 10.54L57.86 10.54L57.86 10.54Q57.86 8.92 58.88 7.69L58.88 7.69L58.88 7.69Q59.89 6.47 61.45 6.47L61.45 6.47L61.45 6.47Q63.01 6.47 64.61 7.01L64.61 7.01L64.61 7.01Q64.19 8.51 64.19 9.95L64.19 9.95L64.19 9.95Q64.19 10.64 64.29 11.66L64.29 11.66L64.29 11.66Q64.39 12.67 64.39 13.16L64.39 13.16L64.39 13.16Q64.39 14.88 63.29 16.01L63.29 16.01L63.29 16.01Q62.20 17.14 60.49 17.14L60.49 17.14L60.49 17.14Q59.49 17.14 58.76 16.75L58.76 16.75L58.76 16.75Q58.04 16.37 58.04 15.55L58.04 15.55L58.04 15.55Q58.04 15.05 58.42 14.70L58.42 14.70L58.42 14.70Q58.80 14.35 59.32 14.35L59.32 14.35L59.32 14.35Q59.43 14.35 59.60 14.38L59.60 14.38L59.60 14.38Q59.56 14.56 59.56 14.70L59.56 14.70L59.56 14.70Q59.56 15.20 59.93 15.57L59.93 15.57L59.93 15.57Q60.31 15.93 60.83 15.93ZM68.45 13.80L68.45 13.80L68.45 13.80Q66.91 13.80 66.18 12.90L66.18 12.90L66.18 12.90Q65.45 12.00 65.45 10.38L65.45 10.38L65.45 10.38Q65.45 8.76 66.42 7.57L66.42 7.57L66.42 7.57Q67.38 6.38 68.89 6.38L68.89 6.38L68.89 6.38Q72.00 6.38 72.00 9.88L72.00 9.88L72.00 9.88Q72.00 11.52 70.99 12.66L70.99 12.66L70.99 12.66Q69.99 13.80 68.45 13.80ZM67.44 7.92L67.44 7.92L67.44 7.92Q67.19 8.74 67.19 9.55L67.19 9.55L67.19 9.55Q67.19 10.36 67.24 10.81L67.24 10.81L67.24 10.81Q67.30 11.26 67.45 11.70L67.45 11.70L67.45 11.70Q67.77 12.61 68.72 12.61L68.72 12.61L68.72 12.61Q69.66 12.61 69.96 12.11L69.96 12.11L69.96 12.11Q70.27 11.61 70.27 10.56L70.27 10.56L70.27 10.56Q70.27 7.57 68.85 7.57L68.85 7.57L68.85 7.57Q68.04 7.57 67.44 7.92Z"></path></g><!----><!----></svg>